<svg width="35" height="35" xmlns="http://www.w3.org/2000/svg"><g fill="none" fill-rule="evenodd"><path d="M34.7978 16.6422H18.6073a.2022.2022 0 0 1-.2021-.2023V.2345a.2022.2022 0 0 1 .2021-.2024h16.1905A.2022.2022 0 0 1 35 .2345v16.2054a.2022.2022 0 0 1-.2022.2023" fill="#121212"/><path d="M26.7026 3.4136c-2.7765 0-5.0273 2.2043-5.0273 4.9236 0 2.7192 2.2508 4.9236 5.0273 4.9236 2.7765 0 5.0273-2.2044 5.0273-4.9236 0-2.7193-2.2508-4.9236-5.0273-4.9236m0 1.566c1.9093 0 3.4627 1.5062 3.4627 3.3576 0 1.8513-1.5534 3.3575-3.4627 3.3575-1.9094 0-3.4628-1.5062-3.4628-3.3575 0-1.8514 1.5534-3.3576 3.4628-3.3576" fill="#FFF"/><path d="M16.5948 16.3202a.3228.3228 0 0 1-.3217.322H.3217A.3228.3228 0 0 1 0 16.3202V.3542A.3228.3228 0 0 1 .3217.0321h15.9514c.177 0 .3217.1448.3217.322v15.966z" fill="#121212"/><path d="M9.046 3.7745H7.5489a.0696.0696 0 0 0-.0696.0696v8.9862c0 .0384.0312.0696.0696.0696H9.046a.0696.0696 0 0 0 .0695-.0696V3.844a.0696.0696 0 0 0-.0695-.0696" fill="#FFF"/><path d="M0 18.6804c0-.1771.1448-.322.3217-.322H16.273c.177 0 .3217.1449.3217.322v15.966a.3228.3228 0 0 1-.3217.322H.3217A.3228.3228 0 0 1 0 34.6465v-15.966z" fill="#121212"/><path d="M8.2974 21.7398c-2.7765 0-5.0273 2.2044-5.0273 4.9236 0 2.7192 2.2508 4.9236 5.0273 4.9236 2.7765 0 5.0273-2.2044 5.0273-4.9236 0-2.7192-2.2508-4.9236-5.0273-4.9236m0 1.566c1.9094 0 3.4628 1.5062 3.4628 3.3576 0 1.8514-1.5534 3.3576-3.4628 3.3576-1.9093 0-3.4627-1.5062-3.4627-3.3576 0-1.8514 1.5534-3.3575 3.4627-3.3575" fill="#FFF"/><path d="M18.4052 18.6804c0-.1771.1448-.322.3217-.322h15.9514c.177 0 .3217.1449.3217.322v15.966a.3228.3228 0 0 1-.3217.322H18.7269a.3228.3228 0 0 1-.3217-.322v-15.966z" fill="#121212"/><path d="M27.4512 22.1007H25.954a.0696.0696 0 0 0-.0695.0696v8.9862c0 .0385.0312.0696.0695.0696h1.4973a.0696.0696 0 0 0 .0696-.0696v-8.9862a.0696.0696 0 0 0-.0696-.0696" fill="#FFF"/></g></svg>