<svg xmlns="http://www.w3.org/2000/svg" width="440" height="440">
  <g fill="none" fill-rule="evenodd">
    <path fill="#121212" d="M434.64 440H5.36A5.36 5.36 0 0 1 0 434.64V5.36C0 2.4 2.4 0 5.359 0H434.64C437.6 0 440 2.4 440 5.36v429.28c0 2.96-2.4 5.36-5.36 5.36"/>
    <path fill="#FFF" d="M217.5 89C144.322 89 85 148.322 85 221.5S144.322 354 217.5 354 350 294.678 350 221.5 290.678 89 217.5 89m0 42.144c50.323 0 91.264 40.534 91.264 90.356 0 49.822-40.941 90.356-91.264 90.356-50.323 0-91.264-40.534-91.264-90.356 0-49.822 40.941-90.356 91.264-90.356"/>
  </g>
</svg>